<svg width="46" height="52" viewBox="0 0 46 52" fill="none" xmlns="http://www.w3.org/2000/svg">
<g filter="url(#filter0_di_26_13)">
<path d="M22.1235 34.6563V28.2883L17.7792 32.3102C17.5749 32.4993 17.315 32.5938 16.9994 32.5938C16.6838 32.5938 16.4239 32.4993 16.2197 32.3102C16.0154 32.1211 15.9133 31.8805 15.9133 31.5883C15.9133 31.2961 16.0154 31.0555 16.2197 30.8665L21.6779 25.8133L16.2197 20.7602C16.0154 20.5711 15.9133 20.3305 15.9133 20.0383C15.9133 19.7461 16.0154 19.5055 16.2197 19.3165C16.4239 19.1274 16.6838 19.0329 16.9994 19.0329C17.315 19.0329 17.5749 19.1274 17.7792 19.3165L22.1235 23.3383V16.9704C22.1235 16.661 22.2348 16.4075 22.4576 16.2098C22.6804 16.0122 22.9403 15.9133 23.2374 15.9133C23.3859 15.9133 23.5251 15.9391 23.6551 15.9907C23.7851 16.0422 23.9057 16.1196 24.0171 16.2227L28.807 20.6571C28.9184 20.7602 28.9973 20.8719 29.0437 20.9922C29.0901 21.1125 29.1133 21.2415 29.1133 21.379C29.1133 21.5165 29.0901 21.6454 29.0437 21.7657C28.9973 21.886 28.9184 21.9977 28.807 22.1008L24.7969 25.8133L28.807 29.5258C28.9184 29.629 28.9973 29.7407 29.0437 29.861C29.0901 29.9813 29.1133 30.1102 29.1133 30.2477C29.1133 30.3852 29.0901 30.5141 29.0437 30.6344C28.9973 30.7547 28.9184 30.8665 28.807 30.9696L24.0171 35.404C23.9057 35.5071 23.7851 35.5844 23.6551 35.636C23.5251 35.6875 23.3859 35.7133 23.2374 35.7133C22.9403 35.7133 22.6804 35.6145 22.4576 35.4168C22.2348 35.2192 22.1235 34.9657 22.1235 34.6563ZM24.3513 23.3383L26.4678 21.379L24.3513 19.4711V23.3383ZM24.3513 32.1555L26.4678 30.2477L24.3513 28.2883V32.1555Z" fill="white"/>
</g>
<defs>
<filter id="filter0_di_26_13" x="-3.8147e-06" y="-3.8147e-06" width="45.0267" height="51.6267" filterUnits="userSpaceOnUse" color-interpolation-filters="sRGB">
<feFlood flood-opacity="0" result="BackgroundImageFix"/>
<feColorMatrix in="SourceAlpha" type="matrix" values="0 0 0 0 0 0 0 0 0 0 0 0 0 0 0 0 0 0 127 0" result="hardAlpha"/>
<feOffset/>
<feGaussianBlur stdDeviation="7.95667"/>
<feComposite in2="hardAlpha" operator="out"/>
<feColorMatrix type="matrix" values="0 0 0 0 1 0 0 0 0 1 0 0 0 0 1 0 0 0 0.25 0"/>
<feBlend mode="normal" in2="BackgroundImageFix" result="effect1_dropShadow_26_13"/>
<feBlend mode="normal" in="SourceGraphic" in2="effect1_dropShadow_26_13" result="shape"/>
<feColorMatrix in="SourceAlpha" type="matrix" values="0 0 0 0 0 0 0 0 0 0 0 0 0 0 0 0 0 0 127 0" result="hardAlpha"/>
<feOffset dy="2.93333"/>
<feGaussianBlur stdDeviation="1.46667"/>
<feComposite in2="hardAlpha" operator="arithmetic" k2="-1" k3="1"/>
<feColorMatrix type="matrix" values="0 0 0 0 0 0 0 0 0 0 0 0 0 0 0 0 0 0 0.25 0"/>
<feBlend mode="normal" in2="shape" result="effect2_innerShadow_26_13"/>
</filter>
</defs>
</svg>
