<svg width="50" height="54" viewBox="0 0 50 54" fill="none" xmlns="http://www.w3.org/2000/svg">
<g filter="url(#filter0_di_26_4)">
<path d="M17.0133 35.7133H32.4133C32.725 35.7133 32.9862 35.8187 33.1971 36.0296C33.4079 36.2404 33.5133 36.5017 33.5133 36.8133C33.5133 37.125 33.4079 37.3862 33.1971 37.5971C32.9862 37.8079 32.725 37.9133 32.4133 37.9133H17.0133C16.7017 37.9133 16.4404 37.8079 16.2296 37.5971C16.0187 37.3862 15.9133 37.125 15.9133 36.8133C15.9133 36.5017 16.0187 36.2404 16.2296 36.0296C16.4404 35.8187 16.7017 35.7133 17.0133 35.7133ZM24.2321 32.7158C24.0762 32.6425 23.9433 32.5325 23.8333 32.3858L18.3883 25.4008C18.1133 25.0342 18.0767 24.6446 18.2783 24.2321C18.48 23.8196 18.81 23.6133 19.2683 23.6133H21.4133V17.0133C21.4133 16.7017 21.5187 16.4404 21.7296 16.2296C21.9404 16.0187 22.2017 15.9133 22.5133 15.9133H26.9133C27.225 15.9133 27.4862 16.0187 27.6971 16.2296C27.9079 16.4404 28.0133 16.7017 28.0133 17.0133V23.6133H30.1583C30.6167 23.6133 30.9467 23.8196 31.1483 24.2321C31.35 24.6446 31.3133 25.0342 31.0383 25.4008L25.5933 32.3858C25.4833 32.5325 25.3504 32.6425 25.1946 32.7158C25.0387 32.7892 24.8783 32.8258 24.7133 32.8258C24.5483 32.8258 24.3879 32.7892 24.2321 32.7158Z" fill="white"/>
</g>
<defs>
<filter id="filter0_di_26_4" x="-3.8147e-06" y="-3.8147e-06" width="49.4267" height="53.8267" filterUnits="userSpaceOnUse" color-interpolation-filters="sRGB">
<feFlood flood-opacity="0" result="BackgroundImageFix"/>
<feColorMatrix in="SourceAlpha" type="matrix" values="0 0 0 0 0 0 0 0 0 0 0 0 0 0 0 0 0 0 127 0" result="hardAlpha"/>
<feOffset/>
<feGaussianBlur stdDeviation="7.95667"/>
<feComposite in2="hardAlpha" operator="out"/>
<feColorMatrix type="matrix" values="0 0 0 0 1 0 0 0 0 1 0 0 0 0 1 0 0 0 0.25 0"/>
<feBlend mode="normal" in2="BackgroundImageFix" result="effect1_dropShadow_26_4"/>
<feBlend mode="normal" in="SourceGraphic" in2="effect1_dropShadow_26_4" result="shape"/>
<feColorMatrix in="SourceAlpha" type="matrix" values="0 0 0 0 0 0 0 0 0 0 0 0 0 0 0 0 0 0 127 0" result="hardAlpha"/>
<feOffset dy="2.93333"/>
<feGaussianBlur stdDeviation="1.46667"/>
<feComposite in2="hardAlpha" operator="arithmetic" k2="-1" k3="1"/>
<feColorMatrix type="matrix" values="0 0 0 0 0 0 0 0 0 0 0 0 0 0 0 0 0 0 0.25 0"/>
<feBlend mode="normal" in2="shape" result="effect2_innerShadow_26_4"/>
</filter>
</defs>
</svg>
