<svg width="50" height="54" viewBox="0 0 50 54" fill="none" xmlns="http://www.w3.org/2000/svg">
<g filter="url(#filter0_di_26_11)">
<path d="M15.9133 34.6133V32.4133H18.1133V24.7133C18.1133 23.1917 18.5717 21.8396 19.4883 20.6571C20.405 19.4746 21.5967 18.7 23.0633 18.3333V17.5633C23.0633 17.105 23.2238 16.7154 23.5446 16.3946C23.8654 16.0737 24.255 15.9133 24.7133 15.9133C25.1717 15.9133 25.5613 16.0737 25.8821 16.3946C26.2029 16.7154 26.3633 17.105 26.3633 17.5633V18.3333C27.83 18.7 29.0217 19.4746 29.9383 20.6571C30.855 21.8396 31.3133 23.1917 31.3133 24.7133V32.4133H33.5133V34.6133H15.9133ZM24.7133 37.9133C24.1083 37.9133 23.5904 37.6979 23.1596 37.2671C22.7288 36.8362 22.5133 36.3183 22.5133 35.7133H26.9133C26.9133 36.3183 26.6979 36.8362 26.2671 37.2671C25.8363 37.6979 25.3183 37.9133 24.7133 37.9133Z" fill="white"/>
</g>
<defs>
<filter id="filter0_di_26_11" x="0" y="-3.8147e-06" width="49.4267" height="53.8267" filterUnits="userSpaceOnUse" color-interpolation-filters="sRGB">
<feFlood flood-opacity="0" result="BackgroundImageFix"/>
<feColorMatrix in="SourceAlpha" type="matrix" values="0 0 0 0 0 0 0 0 0 0 0 0 0 0 0 0 0 0 127 0" result="hardAlpha"/>
<feOffset/>
<feGaussianBlur stdDeviation="7.95667"/>
<feComposite in2="hardAlpha" operator="out"/>
<feColorMatrix type="matrix" values="0 0 0 0 1 0 0 0 0 1 0 0 0 0 1 0 0 0 0.25 0"/>
<feBlend mode="normal" in2="BackgroundImageFix" result="effect1_dropShadow_26_11"/>
<feBlend mode="normal" in="SourceGraphic" in2="effect1_dropShadow_26_11" result="shape"/>
<feColorMatrix in="SourceAlpha" type="matrix" values="0 0 0 0 0 0 0 0 0 0 0 0 0 0 0 0 0 0 127 0" result="hardAlpha"/>
<feOffset dy="2.93333"/>
<feGaussianBlur stdDeviation="1.46667"/>
<feComposite in2="hardAlpha" operator="arithmetic" k2="-1" k3="1"/>
<feColorMatrix type="matrix" values="0 0 0 0 0 0 0 0 0 0 0 0 0 0 0 0 0 0 0.25 0"/>
<feBlend mode="normal" in2="shape" result="effect2_innerShadow_26_11"/>
</filter>
</defs>
</svg>
