<svg width="54" height="54" viewBox="0 0 54 54" fill="none" xmlns="http://www.w3.org/2000/svg">
<g filter="url(#filter0_di_26_8)">
<path d="M26.9133 37.9133C25.3917 37.9133 23.9617 37.6246 22.6233 37.0471C21.285 36.4696 20.1208 35.6858 19.1308 34.6958C18.1408 33.7058 17.3571 32.5417 16.7796 31.2033C16.2021 29.865 15.9133 28.435 15.9133 26.9133C15.9133 25.575 16.1379 24.3054 16.5871 23.1046C17.0363 21.9037 17.655 20.8267 18.4433 19.8733C18.645 19.6167 18.8879 19.4975 19.1721 19.5158C19.4563 19.5342 19.6992 19.635 19.9008 19.8183C20.1025 20.0017 20.2354 20.24 20.2996 20.5333C20.3638 20.8267 20.2675 21.1292 20.0108 21.4408C19.4242 22.1925 18.9613 23.0312 18.6221 23.9571C18.2829 24.8829 18.1133 25.8683 18.1133 26.9133C18.1133 29.37 18.9658 31.4508 20.6708 33.1558C22.3758 34.8608 24.4567 35.7133 26.9133 35.7133C29.37 35.7133 31.4508 34.8608 33.1558 33.1558C34.8608 31.4508 35.7133 29.37 35.7133 26.9133C35.7133 25.8683 35.5438 24.8829 35.2046 23.9571C34.8654 23.0312 34.4025 22.1925 33.8158 21.4408C33.5592 21.1292 33.4629 20.8267 33.5271 20.5333C33.5913 20.24 33.7242 20.0017 33.9258 19.8183C34.1275 19.635 34.3704 19.5342 34.6546 19.5158C34.9388 19.4975 35.1817 19.6167 35.3833 19.8733C36.1717 20.8267 36.7904 21.9037 37.2396 23.1046C37.6888 24.3054 37.9133 25.575 37.9133 26.9133C37.9133 28.435 37.6246 29.865 37.0471 31.2033C36.4696 32.5417 35.6858 33.7058 34.6958 34.6958C33.7058 35.6858 32.5417 36.4696 31.2033 37.0471C29.865 37.6246 28.435 37.9133 26.9133 37.9133ZM26.1296 27.6971C25.9188 27.4862 25.8133 27.225 25.8133 26.9133V17.0133C25.8133 16.7017 25.9188 16.4404 26.1296 16.2296C26.3404 16.0187 26.6017 15.9133 26.9133 15.9133C27.225 15.9133 27.4863 16.0187 27.6971 16.2296C27.9079 16.4404 28.0133 16.7017 28.0133 17.0133V26.9133C28.0133 27.225 27.9079 27.4862 27.6971 27.6971C27.4863 27.9079 27.225 28.0133 26.9133 28.0133C26.6017 28.0133 26.3404 27.9079 26.1296 27.6971Z" fill="white"/>
</g>
<defs>
<filter id="filter0_di_26_8" x="0" y="-3.8147e-06" width="53.8267" height="53.8267" filterUnits="userSpaceOnUse" color-interpolation-filters="sRGB">
<feFlood flood-opacity="0" result="BackgroundImageFix"/>
<feColorMatrix in="SourceAlpha" type="matrix" values="0 0 0 0 0 0 0 0 0 0 0 0 0 0 0 0 0 0 127 0" result="hardAlpha"/>
<feOffset/>
<feGaussianBlur stdDeviation="7.95667"/>
<feComposite in2="hardAlpha" operator="out"/>
<feColorMatrix type="matrix" values="0 0 0 0 1 0 0 0 0 1 0 0 0 0 1 0 0 0 0.25 0"/>
<feBlend mode="normal" in2="BackgroundImageFix" result="effect1_dropShadow_26_8"/>
<feBlend mode="normal" in="SourceGraphic" in2="effect1_dropShadow_26_8" result="shape"/>
<feColorMatrix in="SourceAlpha" type="matrix" values="0 0 0 0 0 0 0 0 0 0 0 0 0 0 0 0 0 0 127 0" result="hardAlpha"/>
<feOffset dy="2.93333"/>
<feGaussianBlur stdDeviation="1.46667"/>
<feComposite in2="hardAlpha" operator="arithmetic" k2="-1" k3="1"/>
<feColorMatrix type="matrix" values="0 0 0 0 0 0 0 0 0 0 0 0 0 0 0 0 0 0 0.25 0"/>
<feBlend mode="normal" in2="shape" result="effect2_innerShadow_26_8"/>
</filter>
</defs>
</svg>
