<svg width="53" height="54" viewBox="0 0 53 54" fill="none" xmlns="http://www.w3.org/2000/svg">
<g filter="url(#filter0_di_26_6)">
<path d="M25.0928 37.9133C24.5978 37.9133 24.1716 37.7483 23.8141 37.4183C23.4566 37.0883 23.2412 36.685 23.1678 36.2083L22.9203 34.3933C22.682 34.3017 22.4574 34.1917 22.2466 34.0633C22.0358 33.935 21.8295 33.7975 21.6278 33.6508L19.9228 34.3658C19.4645 34.5675 19.0062 34.5858 18.5478 34.4208C18.0895 34.2558 17.732 33.9625 17.4753 33.5408L16.1828 31.2858C15.9262 30.8642 15.8528 30.415 15.9628 29.9383C16.0728 29.4617 16.3203 29.0675 16.7053 28.7558L18.1628 27.6558C18.1445 27.5275 18.1353 27.4037 18.1353 27.2846V26.5421C18.1353 26.4229 18.1445 26.2992 18.1628 26.1708L16.7053 25.0708C16.3203 24.7592 16.0728 24.365 15.9628 23.8883C15.8528 23.4117 15.9262 22.9625 16.1828 22.5408L17.4753 20.2858C17.732 19.8642 18.0895 19.5708 18.5478 19.4058C19.0062 19.2408 19.4645 19.2592 19.9228 19.4608L21.6278 20.1758C21.8295 20.0292 22.0403 19.8917 22.2603 19.7633C22.4803 19.635 22.7003 19.525 22.9203 19.4333L23.1678 17.6183C23.2412 17.1417 23.4566 16.7383 23.8141 16.4083C24.1716 16.0783 24.5978 15.9133 25.0928 15.9133H27.6778C28.1728 15.9133 28.5991 16.0783 28.9566 16.4083C29.3141 16.7383 29.5295 17.1417 29.6028 17.6183L29.8503 19.4333C30.0887 19.525 30.3132 19.635 30.5241 19.7633C30.7349 19.8917 30.9412 20.0292 31.1428 20.1758L32.8478 19.4608C33.3062 19.2592 33.7645 19.2408 34.2228 19.4058C34.6812 19.5708 35.0387 19.8642 35.2953 20.2858L36.5878 22.5408C36.8445 22.9625 36.9178 23.4117 36.8078 23.8883C36.6978 24.365 36.4503 24.7592 36.0653 25.0708L34.6078 26.1708C34.6262 26.2992 34.6353 26.4229 34.6353 26.5421V27.2846C34.6353 27.4037 34.617 27.5275 34.5803 27.6558L36.0378 28.7558C36.4228 29.0675 36.6703 29.4617 36.7803 29.9383C36.8903 30.415 36.817 30.8642 36.5603 31.2858L35.2403 33.5408C34.9837 33.9625 34.6262 34.2558 34.1678 34.4208C33.7095 34.5858 33.2512 34.5675 32.7928 34.3658L31.1428 33.6508C30.9412 33.7975 30.7303 33.935 30.5103 34.0633C30.2903 34.1917 30.0703 34.3017 29.8503 34.3933L29.6028 36.2083C29.5295 36.685 29.3141 37.0883 28.9566 37.4183C28.5991 37.7483 28.1728 37.9133 27.6778 37.9133H25.0928ZM26.4403 30.7633C27.5037 30.7633 28.4112 30.3875 29.1628 29.6358C29.9145 28.8842 30.2903 27.9767 30.2903 26.9133C30.2903 25.85 29.9145 24.9425 29.1628 24.1908C28.4112 23.4392 27.5037 23.0633 26.4403 23.0633C25.3587 23.0633 24.4466 23.4392 23.7041 24.1908C22.9616 24.9425 22.5903 25.85 22.5903 26.9133C22.5903 27.9767 22.9616 28.8842 23.7041 29.6358C24.4466 30.3875 25.3587 30.7633 26.4403 30.7633Z" fill="white"/>
</g>
<defs>
<filter id="filter0_di_26_6" x="0" y="-3.8147e-06" width="52.7707" height="53.8267" filterUnits="userSpaceOnUse" color-interpolation-filters="sRGB">
<feFlood flood-opacity="0" result="BackgroundImageFix"/>
<feColorMatrix in="SourceAlpha" type="matrix" values="0 0 0 0 0 0 0 0 0 0 0 0 0 0 0 0 0 0 127 0" result="hardAlpha"/>
<feOffset/>
<feGaussianBlur stdDeviation="7.95667"/>
<feComposite in2="hardAlpha" operator="out"/>
<feColorMatrix type="matrix" values="0 0 0 0 1 0 0 0 0 1 0 0 0 0 1 0 0 0 0.25 0"/>
<feBlend mode="normal" in2="BackgroundImageFix" result="effect1_dropShadow_26_6"/>
<feBlend mode="normal" in="SourceGraphic" in2="effect1_dropShadow_26_6" result="shape"/>
<feColorMatrix in="SourceAlpha" type="matrix" values="0 0 0 0 0 0 0 0 0 0 0 0 0 0 0 0 0 0 127 0" result="hardAlpha"/>
<feOffset dy="2.93333"/>
<feGaussianBlur stdDeviation="1.46667"/>
<feComposite in2="hardAlpha" operator="arithmetic" k2="-1" k3="1"/>
<feColorMatrix type="matrix" values="0 0 0 0 0 0 0 0 0 0 0 0 0 0 0 0 0 0 0.25 0"/>
<feBlend mode="normal" in2="shape" result="effect2_innerShadow_26_6"/>
</filter>
</defs>
</svg>
